<svg xmlns="http://www.w3.org/2000/svg" viewBox="0 0 1310 213.73"><defs><style>.cls-1{fill:#005e85;}.cls-2{fill:#009fe3;}</style></defs><title>logo-positivo</title><g id="Capa_2" data-name="Capa 2"><g id="Capa_1-2" data-name="Capa 1"><rect class="cls-1" x="810.89" width="47.23" height="213.73"/><path class="cls-1" d="M132.15,30.12Q151.77,47,151.78,78.32H105.23q0-13.25-7-21T78.54,49.63q-14.79,0-21.73,9.27t-7,25.81V98.83q0,16.32,7,25.69t21.29,9.39q14.1,0,21.39-7.29t7.28-20.51h45q0,31.11-19.08,47.65T78.76,170.3q-38.84,0-58.8-19.85T0,91.77Q0,53,20,33.1t58.8-19.87Q112.51,13.23,132.15,30.12Z"/><path class="cls-1" d="M283.36,64.08q17.55,15.57,17.54,45.34t-17.54,45.33q-17.53,15.56-48.2,15.55t-48.09-15.44q-17.43-15.44-17.43-45.44T187.07,64q17.43-15.44,48.09-15.44T283.36,64.08Zm-69.82,39.16v12.58q0,24.7,21.62,24.7,21.84,0,21.84-24.7V103.24q0-24.93-21.84-24.92Q213.55,78.32,213.54,103.24Z"/><path class="cls-1" d="M506.5,59.89q9.93,11.37,9.92,32.32v75.45H472.53V97.5q0-7.48-3.64-12T458.63,81a16.25,16.25,0,0,0-12.57,5.29,18.53,18.53,0,0,0-4.86,13v68.39H397.31V97.5q0-7.48-3.65-12T383.4,81a16.26,16.26,0,0,0-12.57,5.29,18.53,18.53,0,0,0-4.85,13v68.39h-43.9V51.18h36l2.86,17.43a46.32,46.32,0,0,1,17.54-14.67,51.36,51.36,0,0,1,23.05-5.41q26.25,0,35.3,20.08a50.39,50.39,0,0,1,39.93-20.08Q496.58,48.53,506.5,59.89Z"/><path class="cls-1" d="M651.77,63.53q16.88,15,16.87,45.89v7.5H581.29q0,12.58,5.62,19t17.76,6.39q11,0,16.21-4.63c3.46-3.1,5.19-7.2,5.19-12.35h42.57q0,21.18-16.1,33.08t-47,11.91q-32.43,0-50.3-15.11t-17.86-45.77q0-30,17.42-45.45t48.1-15.44Q634.89,48.53,651.77,63.53ZM581.5,96.18h42.8q0-9-5.18-14.33t-14.45-5.3Q583.93,76.55,581.5,96.18Z"/><path class="cls-1" d="M769.67,49.53c2.65.81,4,1.29,4,1.43V87.8H759.52q-13.68,0-19.74,7.06t-6.07,21v51.84h-43.9V51.18h36l2.87,17.65a30,30,0,0,1,12.58-15.34,36.89,36.89,0,0,1,19.41-5.18A30.9,30.9,0,0,1,769.67,49.53Z"/><path class="cls-2" d="M965.42,139h72.14v28.76H890.42V155.34l70.37-78.77H895.72V47.81H1035.8V60.18Z"/><path class="cls-2" d="M1068,167.71V47.81h48.75v119.9Z"/><path class="cls-2" d="M1258.37,167.71,1252,150.8h-53.16l-6.41,16.91h-49.85l55.37-119.9h56.7L1310,167.71ZM1209,124h32.87L1226,81.27h-.88Z"/></g></g></svg>