<svg xmlns="http://www.w3.org/2000/svg" viewBox="0 0 310.04 70.4"><defs><style>.cls-1{fill:#e2c417;}.cls-2{fill:#1d1d1b;}.cls-3{fill:#fff;}</style></defs><title>Logo_negro</title><g id="Capa_2" data-name="Capa 2"><g id="Capa_2-2" data-name="Capa 2"><circle class="cls-1" cx="35.2" cy="35.2" r="35.2"/><rect class="cls-1" x="81.04" y="6.73" width="4.56" height="56.77"/><path class="cls-2" d="M100.47,21.37H96.41V18.08H108.3v3.29h-4.07V31.63h-3.76Z"/><path class="cls-2" d="M107.85,28.63v0c0-2.17,1.65-3.29,4.11-3.29a8.1,8.1,0,0,1,2.51.41v-.18c0-1.08-.67-1.7-2.09-1.7a7.33,7.33,0,0,0-2.88.58l-.76-2.59A10.41,10.41,0,0,1,113,21a5.39,5.39,0,0,1,4,1.28,4.36,4.36,0,0,1,1.12,3.33v6h-3.64V30.55a4,4,0,0,1-3.08,1.32C109.38,31.87,107.85,30.72,107.85,28.63Zm6.66-.79v-.49a4,4,0,0,0-1.43-.27c-1.07,0-1.69.53-1.69,1.3v0a1.16,1.16,0,0,0,1.3,1.14A1.68,1.68,0,0,0,114.51,27.84Z"/><path class="cls-2" d="M120,21.16h3.68v2.11A3.22,3.22,0,0,1,127,21v3.88h-.31c-1.91,0-3,1.1-3,3.52v3.25H120Z"/><path class="cls-2" d="M128.26,17.5h3.83v2.71h-3.83Zm.08,3.66H132V31.63h-3.68Z"/><path class="cls-2" d="M134.07,21.16h3.68v1.43a3.84,3.84,0,0,1,3.11-1.66,3.23,3.23,0,0,1,3,1.7,4.38,4.38,0,0,1,3.5-1.7c2.23,0,3.58,1.39,3.58,3.83v6.87h-3.68V25.94c0-1.14-.56-1.74-1.43-1.74s-1.51.6-1.51,1.74v5.69h-3.68V25.94c0-1.14-.56-1.74-1.43-1.74s-1.49.6-1.49,1.74v5.69h-3.68Z"/><path class="cls-2" d="M152.35,28.63v0c0-2.17,1.64-3.29,4.1-3.29a8.12,8.12,0,0,1,2.52.41v-.18c0-1.08-.68-1.7-2.09-1.7a7.34,7.34,0,0,0-2.89.58l-.75-2.59a10.41,10.41,0,0,1,4.24-.82,5.41,5.41,0,0,1,4,1.28,4.4,4.4,0,0,1,1.12,3.33v6H159V30.55a4,4,0,0,1-3.08,1.32C153.88,31.87,152.35,30.72,152.35,28.63Zm6.66-.79v-.49a4,4,0,0,0-1.44-.27c-1.06,0-1.68.53-1.68,1.3v0a1.15,1.15,0,0,0,1.3,1.14A1.69,1.69,0,0,0,159,27.84Z"/><path class="cls-2" d="M163.67,30.32l1.38-2.23a6.85,6.85,0,0,0,3.6,1.2c.64,0,.93-.19.93-.56v0c0-.41-.58-.58-1.68-.89-2.08-.54-3.72-1.24-3.72-3.35v0c0-2.23,1.78-3.46,4.2-3.46a8.15,8.15,0,0,1,4.32,1.22l-1.26,2.32a7.13,7.13,0,0,0-3.1-1c-.56,0-.85.21-.85.5v0c0,.41.6.6,1.7.93,2.08.58,3.72,1.3,3.72,3.33v0c0,2.31-1.72,3.51-4.28,3.51A8.52,8.52,0,0,1,163.67,30.32Z"/><path class="cls-2" d="M96.43,49.13v0c0-2.17,1.64-3.3,4.1-3.3a8.12,8.12,0,0,1,2.52.41V46c0-1.09-.68-1.71-2.09-1.71a7.52,7.52,0,0,0-2.89.58l-.75-2.59a10.42,10.42,0,0,1,4.24-.81,5.4,5.4,0,0,1,4,1.27,4.4,4.4,0,0,1,1.12,3.33v6H103V51.05A3.93,3.93,0,0,1,100,52.37C98,52.37,96.43,51.23,96.43,49.13Zm6.66-.79v-.48a3.77,3.77,0,0,0-1.44-.27c-1.06,0-1.68.52-1.68,1.29v0a1.15,1.15,0,0,0,1.3,1.14A1.68,1.68,0,0,0,103.09,48.34Z"/><path class="cls-2" d="M108.55,41.66h3.68v1.47a3.86,3.86,0,0,1,3.13-1.7c2.23,0,3.57,1.47,3.57,3.85v6.86h-3.68V46.46c0-1.14-.6-1.76-1.47-1.76a1.55,1.55,0,0,0-1.55,1.76v5.68h-3.68Z"/><path class="cls-2" d="M121.46,48.88V44.62h-1.24v-3h1.24V39h3.68v2.65h2.44v3h-2.44v3.55c0,.73.33,1,1,1a3.11,3.11,0,0,0,1.39-.35v2.89a5.22,5.22,0,0,1-2.55.6C122.78,52.35,121.46,51.38,121.46,48.88Z"/><path class="cls-2" d="M129.17,38H133v2.71h-3.83Zm.08,3.66h3.68V52.14h-3.68Z"/><path class="cls-2" d="M134.59,47v0c0-3.41,2.13-5.48,4.61-5.48a4,4,0,0,1,3.21,1.51V38h3.68V52.14h-3.68v-1.4a3.87,3.87,0,0,1-3.19,1.63C136.74,52.37,134.59,50.3,134.59,47Zm7.88,0v0a2.15,2.15,0,1,0-4.28,0v0a2.15,2.15,0,1,0,4.28,0Z"/><path class="cls-2" d="M147.64,47v0a5.26,5.26,0,0,1,5.29-5.48c3.62,0,5.28,2.65,5.28,5.73,0,.23,0,.5,0,.75h-7a2.16,2.16,0,0,0,2.26,1.73,3.14,3.14,0,0,0,2.32-1.07l2,1.69a5.49,5.49,0,0,1-4.55,2.13A5.28,5.28,0,0,1,147.64,47Zm7.13-.91c-.14-1.17-.82-1.9-1.82-1.9s-1.63.75-1.82,1.9Z"/><path class="cls-2" d="M159.78,41.66h3.68v2.11a3.2,3.2,0,0,1,3.31-2.28v3.87h-.31c-1.91,0-3,1.1-3,3.52v3.26h-3.68Z"/><path class="cls-2" d="M168.07,41.66h3.68v2.11a3.2,3.2,0,0,1,3.31-2.28v3.87h-.31c-1.92,0-3,1.1-3,3.52v3.26h-3.68Z"/><path class="cls-2" d="M175.35,49.13v0c0-2.17,1.65-3.3,4.1-3.3a8.12,8.12,0,0,1,2.52.41V46c0-1.09-.68-1.71-2.09-1.71a7.51,7.51,0,0,0-2.88.58l-.76-2.59a10.42,10.42,0,0,1,4.24-.81,5.39,5.39,0,0,1,4,1.27,4.4,4.4,0,0,1,1.12,3.33v6H182V51.05a3.92,3.92,0,0,1-3.08,1.32C176.88,52.37,175.35,51.23,175.35,49.13Zm6.66-.79v-.48a3.76,3.76,0,0,0-1.43-.27c-1.07,0-1.69.52-1.69,1.29v0a1.16,1.16,0,0,0,1.3,1.14A1.68,1.68,0,0,0,182,48.34Z"/><path class="cls-2" d="M187.47,41.66h3.68v1.43a3.86,3.86,0,0,1,3.12-1.66,3.22,3.22,0,0,1,3,1.7,4.41,4.41,0,0,1,3.5-1.7c2.23,0,3.59,1.39,3.59,3.83v6.88H200.7v-5.7c0-1.14-.56-1.74-1.44-1.74s-1.51.6-1.51,1.74v5.7h-3.68v-5.7c0-1.14-.56-1.74-1.43-1.74s-1.49.6-1.49,1.74v5.7h-3.68Z"/><path class="cls-2" d="M205.85,47v0a5.25,5.25,0,0,1,5.28-5.48c3.62,0,5.29,2.65,5.29,5.73,0,.23,0,.5,0,.75h-7a2.16,2.16,0,0,0,2.27,1.73A3.14,3.14,0,0,0,214,48.57l2,1.69a5.47,5.47,0,0,1-4.55,2.13A5.27,5.27,0,0,1,205.85,47ZM213,46a1.86,1.86,0,0,0-1.82-1.9c-1,0-1.62.75-1.82,1.9Z"/><path class="cls-2" d="M217.19,50.82l1.38-2.23a6.76,6.76,0,0,0,3.6,1.2c.64,0,.93-.19.93-.56v0c0-.4-.58-.58-1.68-.89-2.08-.54-3.72-1.24-3.72-3.35v0c0-2.22,1.78-3.46,4.2-3.46a8.15,8.15,0,0,1,4.32,1.22L225,45a7.13,7.13,0,0,0-3.1-1c-.56,0-.85.22-.85.51v0c0,.41.6.61,1.7.93,2.07.59,3.72,1.3,3.72,3.33v0c0,2.31-1.72,3.51-4.28,3.51A8.52,8.52,0,0,1,217.19,50.82Z"/><path class="cls-1" d="M227.79,48.36h3.83v3.78h-3.83Z"/><path class="cls-1" d="M232.82,47v0a5.44,5.44,0,0,1,5.61-5.46,5,5,0,0,1,4.48,2.34l-2.5,1.86a2.24,2.24,0,0,0-2-1.1,2.17,2.17,0,0,0-2,2.32v0a2.17,2.17,0,0,0,2.09,2.38,2.54,2.54,0,0,0,2-1.08L243,50a5.22,5.22,0,0,1-4.67,2.4A5.4,5.4,0,0,1,232.82,47Z"/><path class="cls-1" d="M243.55,47v0a5.8,5.8,0,0,1,11.58,0v0a5.8,5.8,0,0,1-11.58,0Zm8,0v0a2.27,2.27,0,0,0-2.22-2.36,2.19,2.19,0,0,0-2.19,2.32v0a2.27,2.27,0,0,0,2.23,2.36A2.19,2.19,0,0,0,251.54,47Z"/><path class="cls-1" d="M256.68,41.66h3.67v1.43a3.86,3.86,0,0,1,3.12-1.66,3.21,3.21,0,0,1,3,1.7,4.43,4.43,0,0,1,3.51-1.7c2.22,0,3.58,1.39,3.58,3.83v6.88H269.9v-5.7c0-1.14-.56-1.74-1.43-1.74s-1.51.6-1.51,1.74v5.7h-3.68v-5.7c0-1.14-.56-1.74-1.43-1.74s-1.5.6-1.5,1.74v5.7h-3.67Z"/><path class="cls-1" d="M275.32,48.36h3.84v3.78h-3.84Z"/><path class="cls-1" d="M281,41.66h3.68v1.43a3.82,3.82,0,0,1,3.11-1.66,3.21,3.21,0,0,1,3,1.7,4.43,4.43,0,0,1,3.51-1.7c2.22,0,3.58,1.39,3.58,3.83v6.88H294.2v-5.7c0-1.14-.56-1.74-1.43-1.74s-1.51.6-1.51,1.74v5.7h-3.68v-5.7c0-1.14-.56-1.74-1.43-1.74s-1.49.6-1.49,1.74v5.7H281Z"/><path class="cls-1" d="M302.47,46.85,299,41.66h4l1.55,2.58,1.55-2.58H310l-3.44,5.17L310,52.14h-4l-1.63-2.7-1.64,2.7H299Z"/><path class="cls-3" d="M61,22.29H9.5A1.5,1.5,0,0,0,8,23.79v12.6a1.5,1.5,0,0,0,1.5,1.5h.82v5.17a1.5,1.5,0,0,0,1.5,1.5H20a1.5,1.5,0,0,0,1.5-1.5V37.89h8.44v5.17a1.5,1.5,0,0,0,1.5,1.5h8.15a1.5,1.5,0,0,0,1.5-1.5V37.89h8v5.17a1.5,1.5,0,0,0,1.5,1.5h8.15a1.5,1.5,0,0,0,1.5-1.5V37.89H61a1.5,1.5,0,0,0,1.5-1.5V23.79A1.5,1.5,0,0,0,61,22.29ZM18.47,41.56H13.32V37.89h5.15Zm19.59,0H32.91V37.89h5.15ZM11,34.89v-9.6H59.46v9.6Zm46.19,6.67H52V37.89h5.15Z"/><path class="cls-3" d="M60.31,50.31H10.11a1.5,1.5,0,0,1,0-3h50.2a1.5,1.5,0,0,1,0,3Z"/></g></g></svg>